o Mesh
v -16.958749771118164 4.108335971832275 4.611028671264648
v -13.097085952758789 0.10924611240625381 -0.19031526148319244
v -16.417518615722656 4.108336925506592 -3.1466867923736572
v -9.383768081665039 4.108335018157959 11.912668228149414
v -11.617195129394531 -0.5086621046066284 5.736699104309082
v -11.546396255493164 4.108337879180908 -8.378641128540039
v -5.626805305480957 -4.108349323272705 -1.885311245918274
v -11.074429512023926 0.48671427369117737 -5.886251449584961
v -8.896905899047852 -0.16899526119232178 13.047825813293457
v 1.8686515092849731 -0.609402060508728 -13.653643608093262
v 1.9562617540359497 -3.6013691425323486 4.330865859985352
v -0.30382537841796875 4.108338832855225 -19.13252830505371
v 8.755674362182617 -0.16898439824581146 -5.464384078979492
v 2.018045425415039 -0.16898716986179352 15.921781539916992
v -3.439429521560669 -0.168986976146698 19.13252830505371
v 12.191872596740723 -0.16898582875728607 3.2945215702056885
v 6.9507222175598145 -1.1336497068405151 9.20843505859375
v 12.358227729797363 4.108349323272705 -8.288436889648438
v 16.958749771118164 4.108347415924072 3.4383490085601807
v 11.816976547241211 4.108345985412598 13.812057495117188
v 2.647672653198242 4.1083455085754395 14.138548851013184

vn 0.6977920532226562 0.6778151988983154 -0.23163072764873505
vn 0.6226418614387512 0.7731257081031799 0.12080487608909607
vn 0.6149420738220215 0.7303772568702698 0.29731351137161255
vn 0.5878815054893494 0.531441867351532 -0.6098892688751221
vn 0.5199698209762573 0.8145042657852173 -0.25732144713401794
vn 0.5629439353942871 0.6044795513153076 0.5636475682258606
vn 0.20233511924743652 0.9701736569404602 0.13350532948970795
vn 0.6373260021209717 0.6234886050224304 0.45285487174987793
vn 0.2009180784225464 0.9631457924842834 -0.17883583903312683
vn -0.2238682061433792 0.7871171832084656 0.5747431516647339
vn -0.13263897597789764 0.9879004955291748 -0.08037187904119492
vn 0.04245443642139435 0.7933602333068848 0.607270359992981
vn -0.4583933651447296 0.8393287062644958 0.292237788438797
vn -0.17134259641170502 0.9449108242988586 -0.27890023589134216
vn 0.043389711529016495 0.9765986204147339 -0.21064811944961548
vn -0.5401036143302917 0.8411079049110413 -0.02873488888144493
vn -0.29330888390541077 0.8855884075164795 -0.3601432144641876
vn -0.5548485517501831 0.7303557991981506 0.398401141166687
vn -0.6671422719955444 0.744422435760498 -0.027504179626703262
vn -0.3605959415435791 0.7652263045310974 -0.5332911014556885
vn -0.026309331879019737 0.6733226180076599 -0.7388805150985718

vt -3.526038885116577 -0.4823523163795471
vt -2.3128039836883545 0.42284297943115234
vt -3.2796714305877686 1.1492562294006348
vt -2.486999750137329 -2.495443105697632
vt -2.026221752166748 -0.8294082880020142
vt -2.3198084831237793 2.283255100250244
vt -0.70194411277771 0.6513723134994507
vt -1.8606258630752563 1.5179791450500488
vt -1.427385687828064 -2.388408660888672
vt 0.42565351724624634 2.818742036819458
vt 0.7888355851173401 -0.3957534432411194
vt 0.16311430931091309 4.239173412322998
vt 1.937804937362671 1.6327557563781738
vt 1.0311498641967773 -2.853947639465332
vt -0.11350587755441666 -3.619093418121338
vt 2.7930409908294678 0.05500883609056473
vt 1.952344536781311 -1.2904741764068604
vt 2.8273262977600098 2.453935146331787
vt 4.043124675750732 0.23609980940818787
vt 3.53157639503479 -2.0857765674591064
vt 1.8754057884216309 -3.031712055206299

f 1/1/1 2/2/2 3/3/3
f 4/4/4 5/5/5 1/1/1
f 1/1/1 5/5/5 2/2/2
f 2/2/2 6/6/6 3/3/3
f 2/2/2 7/7/7 8/8/8
f 2/2/2 8/8/8 6/6/6
f 2/2/2 5/5/5 7/7/7
f 5/5/5 9/9/9 7/7/7
f 10/10/10 8/8/8 7/7/7
f 9/9/9 11/11/11 7/7/7
f 10/10/10 7/7/7 11/11/11
f 6/6/6 8/8/8 10/10/10
f 6/6/6 10/10/10 12/12/12
f 10/10/10 11/11/11 13/13/13
f 12/12/12 10/10/10 13/13/13
f 14/14/14 11/11/11 15/15/15
f 9/9/9 15/15/15 11/11/11
f 16/16/16 13/13/13 11/11/11
f 14/14/14 17/17/17 11/11/11
f 17/17/17 16/16/16 11/11/11
f 12/12/12 13/13/13 18/18/18
f 18/18/18 13/13/13 16/16/16
f 18/18/18 16/16/16 19/19/19
f 16/16/16 20/20/20 19/19/19
f 16/16/16 17/17/17 20/20/20
f 17/17/17 21/21/21 20/20/20